<svg width="86" height="86" viewBox="0 0 86 86" fill="none" xmlns="http://www.w3.org/2000/svg" xmlns:xlink="http://www.w3.org/1999/xlink">
<path d="M27,40.5C26.172,40.5 25.5,41.172 25.5,42C25.5,42.828 26.172,43.5 27,43.5L27,40.5ZM57,43.5C57.828,43.5 58.5,42.828 58.5,42C58.5,41.172 57.828,40.5 57,40.5L57,43.5ZM27,43.5L57,43.5L57,40.5L27,40.5L27,43.5Z" transform="rotate(-90 42 42)" fill="#FFFFFF"/>
<path d="M40.5,57C40.5,57.828 41.172,58.5 42,58.5C42.828,58.5 43.5,57.828 43.5,57L40.5,57ZM43.5,27C43.5,26.172 42.828,25.5 42,25.5C41.172,25.5 40.5,26.172 40.5,27L43.5,27ZM43.5,57L43.5,27L40.5,27L40.5,57L43.5,57Z" transform="rotate(-90 42 42)" fill="#FFFFFF"/>
</svg>
