<svg width="48" height="48" viewBox="0 0 48 48" fill="none" xmlns="http://www.w3.org/2000/svg" xmlns:xlink="http://www.w3.org/1999/xlink">
<path d="M32,25.5L16,25.5C15.18,25.5 14.5,24.82 14.5,24C14.5,23.18 15.18,22.5 16,22.5L32,22.5C32.82,22.5 33.5,23.18 33.5,24C33.5,24.82 32.82,25.5 32,25.5Z" transform="rotate(0 24 24)" fill="#333333"/>
<path d="M24,33.5C23.18,33.5 22.5,32.82 22.5,32L22.5,16C22.5,15.18 23.18,14.5 24,14.5C24.82,14.5 25.5,15.18 25.5,16L25.5,32C25.5,32.82 24.82,33.5 24,33.5Z" transform="rotate(0 24 24)" fill="#333333"/>
<path d="M30,45.5L18,45.5C7.14,45.5 2.5,40.86 2.5,30L2.5,18C2.5,7.14 7.14,2.5 18,2.5L30,2.5C40.86,2.5 45.5,7.14 45.5,18L45.5,30C45.5,40.86 40.86,45.5 30,45.5ZM18,5.5C8.78,5.5 5.5,8.78 5.5,18L5.5,30C5.5,39.22 8.78,42.5 18,42.5L30,42.5C39.22,42.5 42.5,39.22 42.5,30L42.5,18C42.5,8.78 39.22,5.5 30,5.5L18,5.5Z" transform="rotate(0 24 24)" fill="#333333"/>
</svg>
