<svg width="102" height="102" viewBox="0 0 102 102" fill="none" xmlns="http://www.w3.org/2000/svg" xmlns:xlink="http://www.w3.org/1999/xlink">
<path d="M32,49.412C31.172,49.412 30.5,50.083 30.5,50.912C30.5,51.74 31.172,52.412 32,52.412L32,49.412ZM68,52.412C68.828,52.412 69.5,51.74 69.5,50.912C69.5,50.083 68.828,49.412 68,49.412L68,52.412ZM32,52.412L68,52.412L68,49.412L32,49.412L32,52.412Z" transform="rotate(-90 50 50.912)" fill="#FFFFFF"/>
<path d="M48.5,68.912C48.5,69.74 49.172,70.412 50,70.412C50.828,70.412 51.5,69.74 51.5,68.912L48.5,68.912ZM51.5,32.912C51.5,32.083 50.828,31.412 50,31.412C49.172,31.412 48.5,32.083 48.5,32.912L51.5,32.912ZM51.5,68.912L51.5,32.912L48.5,32.912L48.5,68.912L51.5,68.912Z" transform="rotate(-90 50 50.912)" fill="#FFFFFF"/>
</svg>
