<svg width="24" height="24" viewBox="0 0 40 40" fill="none" xmlns="http://www.w3.org/2000/svg" xmlns:xlink="http://www.w3.org/1999/xlink">
<path d="M28.45,17.45L28.45,29.65L30.85,29.65L30.85,17.45L28.45,17.45ZM28.45,29.65C28.45,32.869 25.839,35.467 22.633,35.467L22.633,37.867C27.161,37.867 30.85,34.198 30.85,29.65L28.45,29.65ZM22.633,35.467L10.35,35.467L10.35,37.867L22.633,37.867L22.633,35.467ZM10.35,35.467C7.146,35.467 4.533,32.854 4.533,29.65L2.133,29.65C2.133,34.179 5.821,37.867 10.35,37.867L10.35,35.467ZM4.533,29.65L4.533,17.45L2.133,17.45L2.133,29.65L4.533,29.65ZM4.533,17.45C4.533,14.231 7.144,11.633 10.35,11.633L10.35,9.233C5.822,9.233 2.133,12.902 2.133,17.45L4.533,17.45ZM10.35,11.633L22.633,11.633L22.633,9.233L10.35,9.233L10.35,11.633ZM22.633,11.633C25.837,11.633 28.45,14.246 28.45,17.45L30.85,17.45C30.85,12.921 27.163,9.233 22.633,9.233L22.633,11.633Z" transform="rotate(0 16.492 23.55)" fill="#5676DC"/>
<line x1="7.967" y1="3.75" x2="7.967" y2="6.667" stroke="#5676DC" stroke-width="1.2" stroke-miterlimit="3.999327" stroke-linecap="round" stroke-linejoin="round"/>
<line x1="14.633" y1="3.75" x2="14.633" y2="6.667" stroke="#5676DC" stroke-width="1.2" stroke-miterlimit="3.999327" stroke-linecap="round" stroke-linejoin="round"/>
<line x1="21.3" y1="3.75" x2="21.3" y2="6.667" stroke="#5676DC" stroke-width="1.2" stroke-miterlimit="3.999327" stroke-linecap="round" stroke-linejoin="round"/>
<path d="M29.65,28.95L28.45,28.95C28.45,29.613 28.987,30.15 29.65,30.15L29.65,28.95ZM29.65,14.917L29.65,13.717C28.987,13.717 28.45,14.254 28.45,14.917L29.65,14.917ZM35.467,21.933C35.467,25.137 32.854,27.75 29.65,27.75L29.65,30.15C34.179,30.15 37.867,26.463 37.867,21.933L35.467,21.933ZM30.85,28.95L30.85,14.917L28.45,14.917L28.45,28.95L30.85,28.95ZM29.65,16.117C32.856,16.117 35.467,18.715 35.467,21.933L37.867,21.933C37.867,17.385 34.178,13.717 29.65,13.717L29.65,16.117Z" transform="rotate(0 33.158 21.933)" fill="#5676DC"/>
<line x1="3.333" y1="18.8" x2="29.183" y2="18.8" stroke="#5676DC" stroke-width="1.2" stroke-miterlimit="3.999327" stroke-linecap="round" stroke-linejoin="round"/>
</svg>
