<svg width="72" height="68" viewBox="0 0 72 68" fill="none" xmlns="http://www.w3.org/2000/svg" xmlns:xlink="http://www.w3.org/1999/xlink">
<line x1="-1.5" y1="0" x2="-1.5" y2="68" stroke="#A559D9" stroke-width="1.5" stroke-miterlimit="3.999327" stroke-linecap="round" stroke-linejoin="round"/>
<path d="M54.64,48.08C54.64,47.552 54.288,47.2 53.76,47.2L41.264,47.2L42.936,44.56L45.84,44.56C46.368,44.56 46.72,44.208 46.72,43.68C46.72,43.152 46.368,42.8 45.84,42.8L42.408,42.8C42.144,42.8 41.792,42.976 41.704,43.24L39.504,46.672L31.496,38.664C31.144,38.312 30.616,38.312 30.264,38.664C29.912,39.016 29.912,39.544 30.264,39.896L38.536,48.168L34.488,54.592C34.224,55.032 34.312,55.56 34.752,55.824C34.928,56 35.104,56 35.28,56C35.544,56 35.896,55.824 35.984,55.56L40.12,48.96L48.832,48.96L52.968,55.56C53.144,55.824 53.408,56 53.672,56C53.848,56 54.024,56 54.112,55.824C54.552,55.56 54.64,55.032 54.376,54.592L50.856,48.872L53.76,48.872C54.288,48.96 54.64,48.608 54.64,48.08Z" transform="rotate(0 42.32 47.2)" fill="#A559D9" stroke="#A559D9" stroke-width="0.2" stroke-miterlimit="3.999327"/>
<path d="M66.96,22.824L66.96,18.16C66.96,14.728 64.232,12 60.8,12C57.368,12 54.64,14.728 54.64,18.16L54.64,22.824C52.528,23.792 51.12,25.992 51.12,28.368C51.12,31.8 53.848,34.528 57.28,34.528L59.92,34.528L59.92,55.12C59.92,55.648 60.272,56 60.8,56C61.328,56 61.68,55.648 61.68,55.12L61.68,34.528L64.32,34.528C67.752,34.528 70.48,31.8 70.48,28.368C70.48,25.992 69.072,23.88 66.96,22.824ZM64.32,32.768L61.68,32.768L61.68,26.96L64.056,24.584C64.408,24.232 64.408,23.704 64.056,23.352C63.704,23 63.176,23 62.824,23.352L61.68,24.496L61.68,23.968C61.68,23.44 61.328,23.088 60.8,23.088C60.272,23.088 59.92,23.44 59.92,23.968L59.92,28.984L57.896,26.96C57.544,26.608 57.016,26.608 56.664,26.96C56.312,27.312 56.312,27.84 56.664,28.192L59.92,31.448L59.92,32.768L57.28,32.768C54.816,32.768 52.88,30.832 52.88,28.368C52.88,26.52 54.024,24.848 55.784,24.232C56.136,24.144 56.4,23.792 56.4,23.44L56.4,18.16C56.4,15.696 58.336,13.76 60.8,13.76C63.264,13.76 65.2,15.696 65.2,18.16L65.2,23.44C65.2,23.792 65.464,24.144 65.816,24.232C67.576,24.848 68.72,26.52 68.72,28.368C68.72,30.832 66.784,32.768 64.32,32.768Z" transform="rotate(0 60.8 34)" fill="#A559D9" stroke="#A559D9" stroke-width="0.2" stroke-miterlimit="3.999327"/>
</svg>
