<svg width="26" height="40" viewBox="0 0 26 40" fill="none" xmlns="http://www.w3.org/2000/svg" xmlns:xlink="http://www.w3.org/1999/xlink">
<path d="M9.24,2.787C11.091,4.659 12.434,6.678 13.091,8.405C14.108,7.375 15.474,6.32 17.07,5.388C21.124,3.022 26,3.887 26,3.887C26,3.887 24.303,8.588 20.248,10.955C17.687,12.45 15.148,13.269 13.405,13.282L13.405,20.432L22.941,20.432C23.721,20.432 24.353,21.071 24.353,21.86L24.353,24.717C24.353,25.506 23.721,26.145 22.941,26.145L22.022,26.145L20.386,37.175C20.23,38.224 19.339,39 18.29,39L6.4,39C5.351,39 4.46,38.224 4.304,37.175L2.668,26.145L1.749,26.145C0.969,26.145 0.337,25.506 0.337,24.717L0.337,21.86C0.337,21.071 0.969,20.432 1.749,20.432L11.285,20.432L11.285,12.693C9.313,12.628 6.381,11.006 3.746,8.342C0.16,4.717 0,-1 0,-1C0,-1 5.654,-0.838 9.24,2.787Z" transform="rotate(0 13 19)" fill="#000000" fill-opacity="0" stroke="#FFFFFF" stroke-width="1.3" stroke-miterlimit="3.999327"/>
</svg>
