<svg width="26" height="40" viewBox="0 0 26 40" fill="none" xmlns="http://www.w3.org/2000/svg" xmlns:xlink="http://www.w3.org/1999/xlink">
<path d="M9.24,3.787C11.091,5.659 12.434,7.678 13.091,9.405C14.108,8.375 15.474,7.32 17.07,6.388C21.124,4.022 26,4.887 26,4.887C26,4.887 24.303,9.588 20.248,11.955C17.687,13.45 15.148,14.269 13.405,14.282L13.405,21.432L22.941,21.432C23.721,21.432 24.353,22.071 24.353,22.86L24.353,25.717C24.353,26.506 23.721,27.145 22.941,27.145L22.022,27.145L20.386,38.175C20.23,39.224 19.339,40 18.29,40L6.4,40C5.351,40 4.46,39.224 4.304,38.175L2.668,27.145L1.749,27.145C0.969,27.145 0.337,26.506 0.337,25.717L0.337,22.86C0.337,22.071 0.969,21.432 1.749,21.432L11.285,21.432L11.285,13.693C9.313,13.628 6.381,12.006 3.746,9.342C0.16,5.717 0,0 0,0C0,0 5.654,0.162 9.24,3.787Z" transform="rotate(0 13 20)" stroke="#8C8C8C" stroke-width="1.3" stroke-miterlimit="3.999327"/>
</svg>
