<svg width="64" height="66" viewBox="0 0 64 66" fill="none" xmlns="http://www.w3.org/2000/svg" xmlns:xlink="http://www.w3.org/1999/xlink">
<path d="M25.98,49.018C25.98,48.19 25.308,47.518 24.48,47.518C23.652,47.518 22.98,48.19 22.98,49.018L25.98,49.018ZM29.867,57.552L30.992,58.543L30.993,58.543L29.867,57.552ZM50.053,34.618L48.93,33.624L48.927,33.627L50.053,34.618ZM45.253,27.998C44.425,27.998 43.753,28.67 43.753,29.498C43.753,30.327 44.425,30.998 45.253,30.998L45.253,27.998ZM22.98,49.018L22.98,55.525L25.98,55.525L25.98,49.018L22.98,49.018ZM22.98,55.525C22.98,56.762 23.145,57.871 23.519,58.777C23.896,59.69 24.541,60.509 25.536,60.883C26.53,61.256 27.555,61.064 28.44,60.628C29.318,60.194 30.175,59.471 30.992,58.543L28.741,56.56C28.078,57.313 27.522,57.736 27.113,57.937C26.914,58.035 26.775,58.069 26.694,58.078C26.619,58.086 26.592,58.075 26.591,58.074C26.589,58.074 26.562,58.065 26.512,58.01C26.458,57.95 26.376,57.835 26.292,57.631C26.118,57.212 25.98,56.528 25.98,55.525L22.98,55.525ZM30.993,58.543L51.179,35.61L48.927,33.627L28.741,56.561L30.993,58.543ZM51.176,35.613C52.535,34.079 53.397,32.154 52.6,30.391C51.805,28.629 49.791,27.998 47.733,27.998L47.733,30.998C49.435,30.998 49.822,31.528 49.866,31.626C49.91,31.723 50.051,32.358 48.93,33.624L51.176,35.613ZM47.733,27.998L45.253,27.998L45.253,30.998L47.733,30.998L47.733,27.998Z" transform="rotate(0 37.941 44.54)" fill="#FFFFFF"/>
<path d="M27.739,17.796C28.287,17.174 28.226,16.226 27.604,15.679C26.982,15.132 26.034,15.192 25.487,15.814L27.739,17.796ZM13.92,31.232L15.043,32.226L15.046,32.223L13.92,31.232ZM24.48,36.352L25.98,36.352C25.98,35.523 25.308,34.852 24.48,34.852L24.48,36.352ZM22.98,39.498C22.98,40.327 23.652,40.998 24.48,40.998C25.308,40.998 25.98,40.327 25.98,39.498L22.98,39.498ZM25.487,15.814L12.794,30.241L15.046,32.223L27.739,17.796L25.487,15.814ZM12.797,30.237C11.438,31.772 10.577,33.696 11.373,35.459C12.169,37.221 14.182,37.852 16.24,37.852L16.24,34.852C14.538,34.852 14.151,34.323 14.107,34.224C14.063,34.127 13.922,33.492 15.043,32.226L12.797,30.237ZM16.24,37.852L24.48,37.852L24.48,34.852L16.24,34.852L16.24,37.852ZM22.98,36.352L22.98,39.498L25.98,39.498L25.98,36.352L22.98,36.352Z" transform="rotate(0 19.593 28.152)" fill="#FFFFFF"/>
<path d="M38.02,24.485C38.02,25.313 38.692,25.985 39.52,25.985C40.348,25.985 41.02,25.313 41.02,24.485L38.02,24.485ZM33.008,7.28C32.46,7.902 32.52,8.85 33.142,9.397C33.763,9.945 34.711,9.885 35.259,9.263L33.008,7.28ZM41.02,24.485L41.02,10.298L38.02,10.298L38.02,24.485L41.02,24.485ZM41.02,10.298C41.02,9.062 40.855,7.952 40.481,7.046C40.104,6.133 39.459,5.314 38.464,4.941C37.47,4.567 36.445,4.759 35.56,5.196C34.682,5.629 33.825,6.353 33.008,7.28L35.259,9.263C35.922,8.511 36.478,8.088 36.887,7.886C37.086,7.788 37.225,7.755 37.306,7.746C37.381,7.737 37.408,7.749 37.409,7.749C37.411,7.75 37.438,7.759 37.488,7.813C37.542,7.873 37.624,7.988 37.708,8.192C37.882,8.611 38.02,9.295 38.02,10.298L41.02,10.298Z" transform="rotate(0 36.827 15.364)" fill="#FFFFFF"/>
<path d="M59.727,7.306C60.313,6.72 60.313,5.77 59.727,5.184C59.142,4.599 58.192,4.599 57.606,5.184L59.727,7.306ZM4.273,58.518C3.687,59.103 3.687,60.053 4.273,60.639C4.858,61.225 5.808,61.225 6.394,60.639L4.273,58.518ZM57.606,5.184L4.273,58.518L6.394,60.639L59.727,7.306L57.606,5.184Z" transform="rotate(0 32 32.912)" fill="#FFFFFF"/>
</svg>
