<svg width="48" height="48" viewBox="0 0 48 48" fill="none" xmlns="http://www.w3.org/2000/svg" xmlns:xlink="http://www.w3.org/1999/xlink">
<path d="M40.08,12.64L28.56,4.58C25.42,2.38 20.6,2.5 17.58,4.84L7.56,12.66C5.56,14.22 3.98,17.42 3.98,19.94L3.98,33.74C3.98,38.84 8.12,43 13.22,43L34.78,43C39.88,43 44.02,38.86 44.02,33.76L44.02,20.2C44.02,17.5 42.28,14.18 40.08,12.64Z" transform="rotate(0 24 23.002)" fill="#FFFFFF" fill-opacity="0" stroke="#FFFFFF" stroke-width="1" stroke-miterlimit="3.999327"/>
<path d="M24,36.5C23.18,36.5 22.5,35.82 22.5,35L22.5,29C22.5,28.18 23.18,27.5 24,27.5C24.82,27.5 25.5,28.18 25.5,29L25.5,35C25.5,35.82 24.82,36.5 24,36.5Z" transform="rotate(0 24 32)" fill="#61AF2B" fill-opacity="0" stroke="#FFFFFF" stroke-width="1" stroke-miterlimit="3.999327"/>
</svg>
