<svg width="48" height="48" viewBox="0 0 48 48" fill="none" xmlns="http://www.w3.org/2000/svg" xmlns:xlink="http://www.w3.org/1999/xlink">
<path d="M40.08,13.64L28.56,5.58C25.42,3.38 20.6,3.5 17.58,5.84L7.56,13.66C5.56,15.22 3.98,18.42 3.98,20.94L3.98,34.74C3.98,39.84 8.12,44 13.22,44L34.78,44C39.88,44 44.02,39.86 44.02,34.76L44.02,21.2C44.02,18.5 42.28,15.18 40.08,13.64Z" transform="rotate(0 24 24.002)" fill="#61AF2B"/>
<path d="M24,37.5C23.18,37.5 22.5,36.82 22.5,36L22.5,30C22.5,29.18 23.18,28.5 24,28.5C24.82,28.5 25.5,29.18 25.5,30L25.5,36C25.5,36.82 24.82,37.5 24,37.5Z" transform="rotate(0 24 33)" fill="#FFFFFF"/>
</svg>
