<svg width="832" height="4" viewBox="0 0 832 4" fill="none" xmlns="http://www.w3.org/2000/svg" xmlns:xlink="http://www.w3.org/1999/xlink">
<path d="M2,0C0.895,0 0,0.895 0,2C0,3.105 0.895,4 2,4L2,0ZM829,4C830.104,4 831,3.105 831,2C831,0.896 830.104,0 829,0L829,4ZM8.081,4C9.185,4 10.081,3.105 10.081,2C10.081,0.895 9.185,0 8.081,0L8.081,4ZM20.243,0C19.138,0 18.243,0.895 18.243,2C18.243,3.105 19.138,4 20.243,4L20.243,0ZM32.404,4C33.509,4 34.404,3.105 34.404,2C34.404,0.895 33.509,0 32.404,0L32.404,4ZM44.566,0C43.462,0 42.566,0.895 42.566,2C42.566,3.105 43.462,4 44.566,4L44.566,0ZM56.728,4C57.833,4 58.728,3.105 58.728,2C58.728,0.895 57.833,0 56.728,0L56.728,4ZM68.89,0C67.785,0 66.89,0.895 66.89,2C66.89,3.105 67.785,4 68.89,4L68.89,0ZM81.051,4C82.156,4 83.051,3.105 83.051,2C83.051,0.895 82.156,0 81.051,0L81.051,4ZM93.213,0C92.109,0 91.213,0.895 91.213,2C91.213,3.105 92.109,4 93.213,4L93.213,0ZM105.375,4C106.48,4 107.375,3.105 107.375,2C107.375,0.895 106.48,0 105.375,0L105.375,4ZM117.537,0C116.432,0 115.537,0.895 115.537,2C115.537,3.105 116.432,4 117.537,4L117.537,0ZM129.699,4C130.803,4 131.699,3.105 131.699,2C131.699,0.895 130.803,0 129.699,0L129.699,4ZM141.86,0C140.756,0 139.86,0.895 139.86,2C139.86,3.105 140.756,4 141.86,4L141.86,0ZM154.022,4C155.127,4 156.022,3.105 156.022,2C156.022,0.895 155.127,0 154.022,0L154.022,4ZM166.184,0C165.079,0 164.184,0.895 164.184,2C164.184,3.105 165.079,4 166.184,4L166.184,0ZM178.346,4C179.45,4 180.346,3.105 180.346,2C180.346,0.895 179.45,0 178.346,0L178.346,4ZM190.507,0C189.403,0 188.507,0.895 188.507,2C188.507,3.105 189.403,4 190.507,4L190.507,0ZM202.67,4C203.774,4 204.67,3.105 204.67,2C204.67,0.895 203.774,0 202.67,0L202.67,4ZM214.83,0C213.726,0 212.83,0.895 212.83,2C212.83,3.105 213.726,4 214.83,4L214.83,0ZM226.992,4C228.098,4 228.992,3.105 228.992,2C228.992,0.895 228.098,0 226.992,0L226.992,4ZM239.154,0C238.05,0 237.154,0.895 237.154,2C237.154,3.105 238.05,4 239.154,4L239.154,0ZM251.316,4C252.42,4 253.316,3.105 253.316,2C253.316,0.895 252.42,0 251.316,0L251.316,4ZM263.478,0C262.374,0 261.478,0.895 261.478,2C261.478,3.105 262.374,4 263.478,4L263.478,0ZM275.64,4C276.744,4 277.64,3.105 277.64,2C277.64,0.896 276.744,0 275.64,0L275.64,4ZM287.802,0C286.696,0 285.802,0.896 285.802,2C285.802,3.105 286.696,4 287.802,4L287.802,0ZM299.964,4C301.068,4 301.964,3.105 301.964,2C301.964,0.896 301.068,0 299.964,0L299.964,4ZM312.124,0C311.02,0 310.124,0.896 310.124,2C310.124,3.105 311.02,4 312.124,4L312.124,0ZM324.286,4C325.392,4 326.286,3.105 326.286,2C326.286,0.896 325.392,0 324.286,0L324.286,4ZM336.448,0C335.344,0 334.448,0.896 334.448,2C334.448,3.105 335.344,4 336.448,4L336.448,0ZM348.61,4C349.714,4 350.61,3.105 350.61,2C350.61,0.896 349.714,0 348.61,0L348.61,4ZM360.772,0C359.668,0 358.772,0.896 358.772,2C358.772,3.105 359.668,4 360.772,4L360.772,0ZM372.934,4C374.038,4 374.934,3.105 374.934,2C374.934,0.896 374.038,0 372.934,0L372.934,4ZM385.096,0C383.992,0 383.096,0.896 383.096,2C383.096,3.105 383.992,4 385.096,4L385.096,0ZM397.258,4C398.362,4 399.258,3.105 399.258,2C399.258,0.896 398.362,0 397.258,0L397.258,4ZM409.42,0C408.314,0 407.42,0.896 407.42,2C407.42,3.105 408.314,4 409.42,4L409.42,0ZM421.58,4C422.686,4 423.58,3.105 423.58,2C423.58,0.896 422.686,0 421.58,0L421.58,4ZM433.742,0C432.638,0 431.742,0.896 431.742,2C431.742,3.105 432.638,4 433.742,4L433.742,0ZM445.904,4C447.01,4 447.904,3.105 447.904,2C447.904,0.896 447.01,0 445.904,0L445.904,4ZM458.066,0C456.962,0 456.066,0.896 456.066,2C456.066,3.105 456.962,4 458.066,4L458.066,0ZM470.228,4C471.332,4 472.228,3.105 472.228,2C472.228,0.896 471.332,0 470.228,0L470.228,4ZM482.39,0C481.286,0 480.39,0.896 480.39,2C480.39,3.105 481.286,4 482.39,4L482.39,0ZM494.552,4C495.656,4 496.552,3.105 496.552,2C496.552,0.896 495.656,0 494.552,0L494.552,4ZM506.714,0C505.608,0 504.714,0.896 504.714,2C504.714,3.105 505.608,4 506.714,4L506.714,0ZM518.876,4C519.98,4 520.876,3.105 520.876,2C520.876,0.896 519.98,0 518.876,0L518.876,4ZM531.036,0C529.932,0 529.036,0.896 529.036,2C529.036,3.105 529.932,4 531.036,4L531.036,0ZM543.198,4C544.304,4 545.198,3.105 545.198,2C545.198,0.896 544.304,0 543.198,0L543.198,4ZM555.36,0C554.256,0 553.36,0.896 553.36,2C553.36,3.105 554.256,4 555.36,4L555.36,0ZM567.522,4C568.626,4 569.522,3.105 569.522,2C569.522,0.896 568.626,0 567.522,0L567.522,4ZM579.684,0C578.58,0 577.684,0.896 577.684,2C577.684,3.105 578.58,4 579.684,4L579.684,0ZM591.846,4C592.95,4 593.846,3.105 593.846,2C593.846,0.896 592.95,0 591.846,0L591.846,4ZM604.008,0C602.902,0 602.008,0.896 602.008,2C602.008,3.105 602.902,4 604.008,4L604.008,0ZM616.17,4C617.274,4 618.17,3.105 618.17,2C618.17,0.896 617.274,0 616.17,0L616.17,4ZM628.33,0C627.226,0 626.33,0.896 626.33,2C626.33,3.105 627.226,4 628.33,4L628.33,0ZM640.492,4C641.598,4 642.492,3.105 642.492,2C642.492,0.896 641.598,0 640.492,0L640.492,4ZM652.654,0C651.55,0 650.654,0.896 650.654,2C650.654,3.105 651.55,4 652.654,4L652.654,0ZM664.816,4C665.92,4 666.816,3.105 666.816,2C666.816,0.896 665.92,0 664.816,0L664.816,4ZM676.978,0C675.874,0 674.978,0.896 674.978,2C674.978,3.105 675.874,4 676.978,4L676.978,0ZM689.14,4C690.244,4 691.14,3.105 691.14,2C691.14,0.896 690.244,0 689.14,0L689.14,4ZM701.302,0C700.196,0 699.302,0.896 699.302,2C699.302,3.105 700.196,4 701.302,4L701.302,0ZM713.464,4C714.568,4 715.464,3.105 715.464,2C715.464,0.896 714.568,0 713.464,0L713.464,4ZM725.624,0C724.52,0 723.624,0.896 723.624,2C723.624,3.105 724.52,4 725.624,4L725.624,0ZM737.786,4C738.892,4 739.786,3.105 739.786,2C739.786,0.896 738.892,0 737.786,0L737.786,4ZM749.948,0C748.844,0 747.948,0.896 747.948,2C747.948,3.105 748.844,4 749.948,4L749.948,0ZM762.11,4C763.214,4 764.11,3.105 764.11,2C764.11,0.896 763.214,0 762.11,0L762.11,4ZM774.272,0C773.168,0 772.272,0.896 772.272,2C772.272,3.105 773.168,4 774.272,4L774.272,0ZM786.434,4C787.538,4 788.434,3.105 788.434,2C788.434,0.896 787.538,0 786.434,0L786.434,4ZM798.596,0C797.49,0 796.596,0.896 796.596,2C796.596,3.105 797.49,4 798.596,4L798.596,0ZM810.756,4C811.862,4 812.756,3.105 812.756,2C812.756,0.896 811.862,0 810.756,0L810.756,4ZM822.918,0C821.814,0 820.918,0.896 820.918,2C820.918,3.105 821.814,4 822.918,4L822.918,0ZM2,4L8.081,4L8.081,0L2,0L2,4ZM20.243,4L32.404,4L32.404,0L20.243,0L20.243,4ZM44.566,4L56.728,4L56.728,0L44.566,0L44.566,4ZM68.89,4L81.051,4L81.051,0L68.89,0L68.89,4ZM93.213,4L105.375,4L105.375,0L93.213,0L93.213,4ZM117.537,4L129.699,4L129.699,0L117.537,0L117.537,4ZM141.86,4L154.022,4L154.022,0L141.86,0L141.86,4ZM166.184,4L178.346,4L178.346,0L166.184,0L166.184,4ZM190.507,4L202.67,4L202.67,0L190.507,0L190.507,4ZM214.83,4L226.992,4L226.992,0L214.83,0L214.83,4ZM239.154,4L251.316,4L251.316,0L239.154,0L239.154,4ZM263.478,4L275.64,4L275.64,0L263.478,0L263.478,4ZM287.802,4L299.964,4L299.964,0L287.802,0L287.802,4ZM312.124,4L324.286,4L324.286,0L312.124,0L312.124,4ZM336.448,4L348.61,4L348.61,0L336.448,0L336.448,4ZM360.772,4L372.934,4L372.934,0L360.772,0L360.772,4ZM385.096,4L397.258,4L397.258,0L385.096,0L385.096,4ZM409.42,4L421.58,4L421.58,0L409.42,0L409.42,4ZM433.742,4L445.904,4L445.904,0L433.742,0L433.742,4ZM458.066,4L470.228,4L470.228,0L458.066,0L458.066,4ZM482.39,4L494.552,4L494.552,0L482.39,0L482.39,4ZM506.714,4L518.876,4L518.876,0L506.714,0L506.714,4ZM531.036,4L543.198,4L543.198,0L531.036,0L531.036,4ZM555.36,4L567.522,4L567.522,0L555.36,0L555.36,4ZM579.684,4L591.846,4L591.846,0L579.684,0L579.684,4ZM604.008,4L616.17,4L616.17,0L604.008,0L604.008,4ZM628.33,4L640.492,4L640.492,0L628.33,0L628.33,4ZM652.654,4L664.816,4L664.816,0L652.654,0L652.654,4ZM676.978,4L689.14,4L689.14,0L676.978,0L676.978,4ZM701.302,4L713.464,4L713.464,0L701.302,0L701.302,4ZM725.624,4L737.786,4L737.786,0L725.624,0L725.624,4ZM749.948,4L762.11,4L762.11,0L749.948,0L749.948,4ZM774.272,4L786.434,4L786.434,0L774.272,0L774.272,4ZM798.596,4L810.756,4L810.756,0L798.596,0L798.596,4ZM822.918,4L829,4L829,0L822.918,0L822.918,4Z" transform="rotate(0 415.5 2)" fill="#FFFFFF"/>
</svg>
