<svg width="84" height="84" viewBox="0 0 84 84" fill="none" xmlns="http://www.w3.org/2000/svg" xmlns:xlink="http://www.w3.org/1999/xlink">
<path d="M58.917,55.896L25.084,55.896C19.235,55.896 16.021,52.682 16.021,46.833L16.021,37.166C16.021,31.318 19.235,28.104 25.084,28.104L58.917,28.104C64.765,28.104 67.979,31.318 67.979,37.166L67.979,46.833C67.979,52.682 64.765,55.896 58.917,55.896ZM25.084,31.729C21.265,31.729 19.646,33.348 19.646,37.166L19.646,46.833C19.646,50.652 21.265,52.271 25.084,52.271L58.917,52.271C62.735,52.271 64.354,50.652 64.354,46.833L64.354,37.166C64.354,33.348 62.735,31.729 58.917,31.729L25.084,31.729Z" transform="rotate(-90 42 42)" fill="#4B8364"/>
<path d="M47.981,35.329C46.99,35.329 46.169,34.507 46.169,33.516L46.169,21.433C46.169,20.442 46.99,19.621 47.981,19.621C48.972,19.621 49.794,20.442 49.794,21.433L49.794,33.516C49.794,34.507 48.972,35.329 47.981,35.329Z" transform="rotate(-90 47.981 27.475)" fill="#4B8364"/>
<path d="M26.621,53.772C25.63,53.772 24.808,52.951 24.808,51.96L24.808,42.293C24.808,41.302 25.63,40.481 26.621,40.481C27.612,40.481 28.433,41.302 28.433,42.293L28.433,51.96C28.433,52.951 27.612,53.772 26.621,53.772Z" transform="rotate(-90 26.621 47.127)" fill="#4B8364"/>
<path d="M34.293,48.957C33.278,48.957 32.48,48.135 32.48,47.12L32.601,35.037C32.601,34.046 33.423,33.249 34.414,33.249C34.414,33.249 34.414,33.249 34.438,33.249C35.429,33.249 36.25,34.07 36.226,35.085L36.105,47.169C36.105,48.159 35.284,48.957 34.293,48.957Z" transform="rotate(-90 34.353 41.103)" fill="#4B8364"/>
<path d="M39.437,38.039C38.446,38.039 37.625,37.217 37.625,36.226L37.625,28.976C37.625,27.985 38.446,27.164 39.437,27.164C40.428,27.164 41.25,27.985 41.25,28.976L41.25,36.226C41.25,37.217 40.428,38.039 39.437,38.039Z" transform="rotate(-90 39.437 32.601)" fill="#4B8364"/>
</svg>
