<svg width="770" height="860" viewBox="0 0 770 860" fill="none" xmlns="http://www.w3.org/2000/svg" xmlns:xlink="http://www.w3.org/1999/xlink">
<path d="M315.808,30.141C352.298,-9.879 415.29,-9.879 451.778,30.142L531.714,117.817C544.542,131.884 561.416,141.627 580.012,145.701L695.91,171.092C748.812,182.68 780.308,237.234 763.894,288.844L727.934,401.908C722.164,420.05 722.164,439.536 727.934,457.678L763.894,570.742C780.308,622.352 748.812,676.906 695.91,688.496L580.012,713.886C561.416,717.96 544.542,727.702 531.714,741.77L451.778,829.444C415.29,869.466 352.298,869.466 315.808,829.444L235.872,741.77C223.046,727.702 206.17,717.96 187.574,713.886L71.677,688.496C18.774,676.906 -12.722,622.352 3.692,570.742L39.653,457.678C45.423,439.536 45.423,420.05 39.653,401.908L3.692,288.844C-12.722,237.234 18.774,182.68 71.677,171.092L187.574,145.701C206.17,141.627 223.046,131.884 235.872,117.817L315.808,30.141Z" transform="rotate(0 383.793 429.793)" fill="#FFFFFF" fill-opacity="0.55"/>
</svg>
