<svg width="90" height="176" viewBox="0 0 90 176" fill="none" xmlns="http://www.w3.org/2000/svg" xmlns:xlink="http://www.w3.org/1999/xlink">
<path d="M0,0L16,0C22.715,0 28.463,4.136 30.837,10L30,10L30,17.95C30,19.055 30.895,19.95 32,19.95C33.105,19.95 34,19.055 34,17.95L34,10L33.163,10C35.537,4.136 41.285,0 48,0L74,0C82.837,0 90,7.163 90,16L90,160C90,168.837 82.837,176 74,176L48,176C41.976,176 36.729,172.671 34,167.752L34,161.05C34,159.945 33.105,159.05 32,159.05C30.895,159.05 30,159.945 30,161.05L30,167.752C27.271,172.671 22.024,176 16,176L0,176L0,0ZM34,33.85C34,32.745 33.105,31.85 32,31.85C30.895,31.85 30,32.745 30,33.85L30,49.75C30,50.855 30.895,51.75 32,51.75C33.105,51.75 34,50.855 34,49.75L34,33.85ZM34,65.65C34,64.545 33.105,63.65 32,63.65C30.895,63.65 30,64.545 30,65.65L30,81.55C30,82.655 30.895,83.55 32,83.55C33.105,83.55 34,82.655 34,81.55L34,65.65ZM34,97.45C34,96.345 33.105,95.45 32,95.45C30.895,95.45 30,96.345 30,97.45L30,113.35C30,114.455 30.895,115.35 32,115.35C33.105,115.35 34,114.455 34,113.35L34,97.45ZM34,129.25C34,128.145 33.105,127.25 32,127.25C30.895,127.25 30,128.145 30,129.25L30,145.15C30,146.255 30.895,147.15 32,147.15C33.105,147.15 34,146.255 34,145.15L34,129.25Z" clip-rule="evenodd" fill-rule="evenodd" fill="#FFFFFF"/>
</svg>
