<svg width="58" height="58" viewBox="0 0 58 58" fill="none" xmlns="http://www.w3.org/2000/svg" xmlns:xlink="http://www.w3.org/1999/xlink">
<path d="M28,45.521C18.333,45.521 10.479,37.667 10.479,28C10.479,18.333 18.333,10.479 28,10.479C37.667,10.479 45.521,18.333 45.521,28C45.521,37.667 37.667,45.521 28,45.521ZM28,14.104C20.339,14.104 14.104,20.339 14.104,28C14.104,35.661 20.339,41.896 28,41.896C35.661,41.896 41.896,35.661 41.896,28C41.896,20.339 35.661,14.104 28,14.104Z" transform="rotate(0 28 28)" fill="#E6B44C"/>
<path d="M28,54.487C26.671,54.487 25.583,53.496 25.583,52.167L25.583,51.973C25.583,50.644 26.671,49.557 28,49.557C29.329,49.557 30.417,50.644 30.417,51.973C30.417,53.302 29.329,54.487 28,54.487ZM45.255,47.672C44.627,47.672 44.022,47.43 43.539,46.971L43.225,46.657C42.282,45.714 42.282,44.192 43.225,43.249C44.167,42.307 45.69,42.307 46.632,43.249L46.947,43.563C47.889,44.506 47.889,46.028 46.947,46.971C46.487,47.43 45.883,47.672 45.255,47.672ZM10.745,47.672C10.117,47.672 9.513,47.43 9.029,46.971C8.087,46.028 8.087,44.506 9.029,43.563L9.343,43.249C10.286,42.307 11.808,42.307 12.751,43.249C13.693,44.192 13.693,45.714 12.751,46.657L12.437,46.971C11.978,47.43 11.349,47.672 10.745,47.672ZM52.167,30.417L51.973,30.417C50.644,30.417 49.557,29.329 49.557,28C49.557,26.671 50.644,25.583 51.973,25.583C53.302,25.583 54.487,26.671 54.487,28C54.487,29.329 53.496,30.417 52.167,30.417ZM4.027,30.417L3.833,30.417C2.504,30.417 1.417,29.329 1.417,28C1.417,26.671 2.504,25.583 3.833,25.583C5.163,25.583 6.347,26.671 6.347,28C6.347,29.329 5.356,30.417 4.027,30.417ZM44.941,13.476C44.312,13.476 43.708,13.234 43.225,12.775C42.282,11.833 42.282,10.31 43.225,9.368L43.539,9.053C44.482,8.111 46.004,8.111 46.947,9.053C47.889,9.996 47.889,11.518 46.947,12.461L46.632,12.775C46.173,13.234 45.569,13.476 44.941,13.476ZM11.059,13.476C10.431,13.476 9.827,13.234 9.343,12.775L9.029,12.437C8.087,11.494 8.087,9.972 9.029,9.029C9.972,8.087 11.494,8.087 12.437,9.029L12.751,9.343C13.693,10.286 13.693,11.808 12.751,12.751C12.292,13.234 11.663,13.476 11.059,13.476ZM28,6.347C26.671,6.347 25.583,5.356 25.583,4.027L25.583,3.833C25.583,2.504 26.671,1.417 28,1.417C29.329,1.417 30.417,2.504 30.417,3.833C30.417,5.163 29.329,6.347 28,6.347Z" transform="rotate(0 27.952 27.952)" fill="#E6B44C"/>
</svg>
