<svg width="28" height="58" viewBox="0 0 28 58" fill="none" xmlns="http://www.w3.org/2000/svg" xmlns:xlink="http://www.w3.org/1999/xlink">
<path d="M-0.5,42.86C-0.5,46.869 1.21,50.704 4.192,53.384C6.818,55.744 10.113,57 13.606,57C14.127,57 14.654,56.972 15.183,56.915C21.524,56.236 26.758,51.163 27.625,44.852C27.626,44.851 27.626,44.851 27.626,44.851C28.488,38.53 25.139,32.531 19.42,29.969L19.42,4.783C19.42,3.225 18.815,1.772 17.724,0.696C16.63,-0.398 15.179,-1 13.637,-1C10.448,-1 7.854,1.594 7.854,4.783L7.854,29.97C2.824,32.233 -0.5,37.31 -0.5,42.86ZM9.49,31.906C9.96,31.728 10.27,31.279 10.27,30.777L10.27,27.749L11.783,27.749C12.45,27.749 12.991,27.208 12.991,26.54C12.991,25.873 12.45,25.332 11.783,25.332L10.27,25.332L10.27,23.126L12.991,23.126C13.659,23.126 14.2,22.585 14.2,21.918C14.2,21.25 13.659,20.709 12.991,20.709L10.27,20.709L10.27,18.504L11.783,18.504C12.45,18.504 12.991,17.963 12.991,17.296C12.991,16.628 12.45,16.087 11.783,16.087L10.27,16.087L10.27,13.882L12.991,13.882C13.659,13.882 14.2,13.341 14.2,12.674C14.2,12.006 13.659,11.465 12.991,11.465L10.27,11.465L10.27,9.259L11.783,9.259C12.45,9.259 12.991,8.718 12.991,8.051C12.991,7.384 12.45,6.843 11.783,6.843L10.27,6.843L10.27,4.783C10.27,2.926 11.781,1.417 13.637,1.417C14.533,1.417 15.377,1.768 16.021,2.411C16.655,3.036 17.003,3.877 17.003,4.783L17.003,30.777C17.003,31.279 17.314,31.728 17.783,31.906C22.916,33.853 25.979,39.041 25.232,44.523C24.512,49.748 20.178,53.95 14.925,54.513C11.544,54.867 8.309,53.835 5.807,51.586C3.334,49.364 1.917,46.184 1.917,42.86C1.917,38.026 4.96,33.624 9.49,31.906Z" transform="rotate(0 13.63 28)" fill="#A559D9"/>
<path d="M6.513,48.845C8.286,50.955 10.877,52.166 13.623,52.166C14.29,52.166 14.831,51.625 14.831,50.957C14.831,50.29 14.29,49.749 13.623,49.749C11.593,49.749 9.676,48.853 8.364,47.29C7.052,45.728 6.504,43.661 6.862,41.621C6.977,40.963 6.538,40.337 5.881,40.222C5.219,40.106 4.597,40.546 4.482,41.203C4,43.949 4.741,46.734 6.513,48.845Z" transform="rotate(0 9.584 46.184)" fill="#A559D9"/>
</svg>
