<svg width="24" height="18" viewBox="0 0 24 18" fill="none" xmlns="http://www.w3.org/2000/svg" xmlns:xlink="http://www.w3.org/1999/xlink">
<path d="M2.805,9.649C2.105,9.205 1.178,9.412 0.734,10.111C0.29,10.81 0.496,11.737 1.195,12.181L2.805,9.649ZM10,16L9.195,17.266C9.825,17.666 10.653,17.543 11.139,16.976L10,16ZM23.139,2.976C23.678,2.347 23.605,1.4 22.976,0.861C22.347,0.322 21.4,0.395 20.861,1.024L23.139,2.976ZM1.195,12.181L9.195,17.266L10.805,14.734L2.805,9.649L1.195,12.181ZM11.139,16.976L23.139,2.976L20.861,1.024L8.861,15.024L11.139,16.976Z" transform="rotate(0 12 9)" fill="#61AF2B"/>
</svg>
