<svg width="36" height="36" viewBox="0 0 36 36" fill="none" xmlns="http://www.w3.org/2000/svg" xmlns:xlink="http://www.w3.org/1999/xlink">
<path d="M34.897,14.595C34.377,14.079 33.718,13.725 33,13.575L33,8.25C33,6.062 32.131,3.964 30.584,2.416C29.036,0.869 26.938,0 24.75,0L11.25,0C9.062,0 6.964,0.869 5.416,2.416C3.869,3.964 3,6.062 3,8.25L3,13.575C2.153,13.748 1.392,14.208 0.845,14.878C0.298,15.548 0,16.386 0,17.25L0,30.75C0.001,31.214 0.146,31.667 0.415,32.045C0.683,32.424 1.062,32.71 1.5,32.865L1.5,35.25C1.5,35.449 1.579,35.64 1.72,35.78C1.86,35.921 2.051,36 2.25,36L5.25,36C5.449,36 5.64,35.921 5.78,35.78C5.921,35.64 6,35.449 6,35.25L6,33L30,33L30,35.25C30,35.449 30.079,35.64 30.22,35.78C30.36,35.921 30.551,36 30.75,36L33.75,36C33.949,36 34.14,35.921 34.28,35.78C34.421,35.64 34.5,35.449 34.5,35.25L34.5,32.865C34.938,32.71 35.317,32.424 35.585,32.045C35.854,31.667 35.999,31.214 36,30.75L36,17.25C36,16.757 35.902,16.268 35.713,15.813C35.524,15.357 35.247,14.943 34.897,14.595ZM4.5,8.25C4.5,6.46 5.211,4.743 6.477,3.477C7.743,2.211 9.46,1.5 11.25,1.5L24.75,1.5C26.54,1.5 28.257,2.211 29.523,3.477C30.789,4.743 31.5,6.46 31.5,8.25L31.5,13.575C31.284,13.621 31.074,13.686 30.87,13.77L30.667,13.868C30.528,13.931 30.393,14.004 30.262,14.085L30,14.25C29.888,14.333 29.782,14.423 29.677,14.512L29.49,14.708C29.396,14.81 29.309,14.917 29.228,15.03C29.169,15.101 29.116,15.176 29.07,15.255C28.994,15.372 28.926,15.495 28.868,15.623L28.755,15.863C28.699,16.006 28.654,16.154 28.62,16.305C28.62,16.38 28.575,16.455 28.56,16.53C28.517,16.767 28.496,17.009 28.5,17.25L28.5,21.75C27.853,21.259 27.062,20.996 26.25,21L9.75,21C8.938,20.996 8.147,21.259 7.5,21.75L7.5,17.25C7.5,16.757 7.402,16.268 7.213,15.813C7.024,15.357 6.747,14.943 6.398,14.595C6.239,14.439 6.066,14.298 5.88,14.175C5.828,14.136 5.773,14.101 5.715,14.07C5.578,13.982 5.435,13.905 5.288,13.838L5.115,13.762C4.915,13.685 4.709,13.623 4.5,13.575L4.5,8.25ZM7.5,24.75C7.5,24.153 7.737,23.581 8.159,23.159C8.581,22.737 9.153,22.5 9.75,22.5L26.25,22.5C26.847,22.5 27.419,22.737 27.841,23.159C28.263,23.581 28.5,24.153 28.5,24.75L28.5,25.5L7.5,25.5L7.5,24.75ZM4.5,34.5L3,34.5L3,33L4.5,33L4.5,34.5ZM33,34.5L31.5,34.5L31.5,33L33,33L33,34.5ZM34.5,30.75C34.5,30.949 34.421,31.14 34.28,31.28C34.14,31.421 33.949,31.5 33.75,31.5L2.25,31.5C2.051,31.5 1.86,31.421 1.72,31.28C1.579,31.14 1.5,30.949 1.5,30.75L1.5,17.25C1.5,16.653 1.737,16.081 2.159,15.659C2.581,15.237 3.153,15 3.75,15C4.347,15 4.919,15.237 5.341,15.659C5.763,16.081 6,16.653 6,17.25L6,26.25C6,26.449 6.079,26.64 6.22,26.78C6.36,26.921 6.551,27 6.75,27L29.25,27C29.449,27 29.64,26.921 29.78,26.78C29.921,26.64 30,26.449 30,26.25L30,17.25C30,16.653 30.237,16.081 30.659,15.659C31.081,15.237 31.653,15 32.25,15C32.847,15 33.419,15.237 33.841,15.659C34.263,16.081 34.5,16.653 34.5,17.25L34.5,30.75Z" transform="rotate(0 18 18)" fill="#E6B44C" stroke="#E6B44C" stroke-width="0.2" stroke-miterlimit="3.999327"/>
</svg>
