<svg width="44" height="52" viewBox="0 0 44 52" fill="none" xmlns="http://www.w3.org/2000/svg" xmlns:xlink="http://www.w3.org/1999/xlink">
<path d="M23.474,2.341L22.553,3.525L22.557,3.528L23.474,2.341ZM20.526,2.341L21.436,3.533L21.447,3.525L20.526,2.341ZM2.449,30.592L3.949,30.592L3.949,30.584L2.449,30.592ZM41.599,30.616L40.099,30.613L40.099,30.616L41.599,30.616ZM24.395,1.157C22.983,0.059 21.017,0.059 19.605,1.157L21.447,3.525C21.775,3.269 22.225,3.269 22.553,3.525L24.395,1.157ZM19.616,1.148C17.272,2.937 12.628,6.756 8.566,11.852C4.522,16.923 0.91,23.442 0.949,30.6L3.949,30.584C3.916,24.425 7.046,18.571 10.911,13.722C14.757,8.897 19.188,5.249 21.436,3.533L19.616,1.148ZM0.949,30.592C0.949,42.197 10.392,51.667 22.024,51.667L22.024,48.667C12.051,48.667 3.949,40.543 3.949,30.592L0.949,30.592ZM22.024,51.667C33.654,51.667 43.099,42.224 43.099,30.616L40.099,30.616C40.099,40.565 31.999,48.667 22.024,48.667L22.024,51.667ZM43.099,30.619C43.112,23.557 39.479,17.039 35.433,11.947C31.364,6.828 26.723,2.955 24.391,1.154L22.557,3.528C24.792,5.255 29.226,8.958 33.084,13.814C36.964,18.697 40.11,24.553 40.099,30.613L43.099,30.619Z" transform="rotate(0 22.024 26)" fill="#5676DC"/>
</svg>
