<svg width="18" height="16" viewBox="0 0 18 16" fill="none" xmlns="http://www.w3.org/2000/svg" xmlns:xlink="http://www.w3.org/1999/xlink">
<path d="M6.909,15.2L10.182,15.2L10.182,12.8L6.909,12.8L6.909,15.2ZM10.182,15.2C12.003,15.2 13.59,14.743 14.712,13.621C15.835,12.498 16.291,10.912 16.291,9.091L13.891,9.091C13.891,10.542 13.529,11.41 13.015,11.924C12.501,12.438 11.633,12.8 10.182,12.8L10.182,15.2ZM16.291,9.091L16.291,5.818L13.891,5.818L13.891,9.091L16.291,9.091ZM16.291,5.818C16.291,3.996 15.835,2.41 14.712,1.287C13.59,0.165 12.003,-0.291 10.182,-0.291L10.182,2.109C11.633,2.109 12.501,2.471 13.015,2.984C13.529,3.498 13.891,4.366 13.891,5.818L16.291,5.818ZM10.182,-0.291L6.909,-0.291L6.909,2.109L10.182,2.109L10.182,-0.291ZM6.909,-0.291C5.088,-0.291 3.501,0.165 2.379,1.287C1.256,2.41 0.8,3.996 0.8,5.818L3.2,5.818C3.2,4.366 3.562,3.498 4.076,2.984C4.59,2.471 5.458,2.109 6.909,2.109L6.909,-0.291ZM0.8,5.818L0.8,9.091L3.2,9.091L3.2,5.818L0.8,5.818ZM0.8,9.091C0.8,10.912 1.256,12.498 2.379,13.621C3.501,14.743 5.088,15.2 6.909,15.2L6.909,12.8C5.458,12.8 4.59,12.438 4.076,11.924C3.562,11.41 3.2,10.542 3.2,9.091L0.8,9.091Z" transform="rotate(0 8.545 7.454)" fill="#4B8364"/>
</svg>
