<svg width="18" height="18" viewBox="0 0 18 18" fill="none" xmlns="http://www.w3.org/2000/svg" xmlns:xlink="http://www.w3.org/1999/xlink">
<path d="M6.909,16.291L10.182,16.291L10.182,13.891L6.909,13.891L6.909,16.291ZM10.182,16.291C12.003,16.291 13.59,15.835 14.712,14.712C15.835,13.59 16.291,12.003 16.291,10.182L13.891,10.182C13.891,11.633 13.529,12.501 13.015,13.015C12.501,13.529 11.633,13.891 10.182,13.891L10.182,16.291ZM16.291,10.182L16.291,6.909L13.891,6.909L13.891,10.182L16.291,10.182ZM16.291,6.909C16.291,5.088 15.835,3.501 14.712,2.379C13.59,1.256 12.003,0.8 10.182,0.8L10.182,3.2C11.633,3.2 12.501,3.562 13.015,4.076C13.529,4.59 13.891,5.458 13.891,6.909L16.291,6.909ZM10.182,0.8L6.909,0.8L6.909,3.2L10.182,3.2L10.182,0.8ZM6.909,0.8C5.088,0.8 3.501,1.256 2.379,2.379C1.256,3.501 0.8,5.088 0.8,6.909L3.2,6.909C3.2,5.458 3.562,4.59 4.076,4.076C4.59,3.562 5.458,3.2 6.909,3.2L6.909,0.8ZM0.8,6.909L0.8,10.182L3.2,10.182L3.2,6.909L0.8,6.909ZM0.8,10.182C0.8,12.003 1.256,13.59 2.379,14.712C3.501,15.835 5.088,16.291 6.909,16.291L6.909,13.891C5.458,13.891 4.59,13.529 4.076,13.015C3.562,12.501 3.2,11.633 3.2,10.182L0.8,10.182Z" transform="rotate(0 8.545 8.545)" fill="#4B8364"/>
</svg>
