<svg width="16" height="18" viewBox="0 0 16 18" fill="none" xmlns="http://www.w3.org/2000/svg" xmlns:xlink="http://www.w3.org/1999/xlink">
<path d="M5.818,16.291L9.091,16.291L9.091,13.891L5.818,13.891L5.818,16.291ZM9.091,16.291C10.912,16.291 12.499,15.835 13.621,14.712C14.744,13.59 15.2,12.003 15.2,10.182L12.8,10.182C12.8,11.633 12.438,12.501 11.924,13.015C11.41,13.529 10.542,13.891 9.091,13.891L9.091,16.291ZM15.2,10.182L15.2,6.909L12.8,6.909L12.8,10.182L15.2,10.182ZM15.2,6.909C15.2,5.088 14.744,3.501 13.621,2.379C12.499,1.256 10.912,0.8 9.091,0.8L9.091,3.2C10.542,3.2 11.41,3.562 11.924,4.076C12.438,4.59 12.8,5.458 12.8,6.909L15.2,6.909ZM9.091,0.8L5.818,0.8L5.818,3.2L9.091,3.2L9.091,0.8ZM5.818,0.8C3.997,0.8 2.41,1.256 1.288,2.379C0.165,3.501 -0.291,5.088 -0.291,6.909L2.109,6.909C2.109,5.458 2.471,4.59 2.985,4.076C3.499,3.562 4.367,3.2 5.818,3.2L5.818,0.8ZM-0.291,6.909L-0.291,10.182L2.109,10.182L2.109,6.909L-0.291,6.909ZM-0.291,10.182C-0.291,12.003 0.165,13.59 1.288,14.712C2.41,15.835 3.997,16.291 5.818,16.291L5.818,13.891C4.367,13.891 3.499,13.529 2.985,13.015C2.471,12.501 2.109,11.633 2.109,10.182L-0.291,10.182Z" transform="rotate(0 7.455 8.545)" fill="#4B8364"/>
</svg>
