<svg width="52" height="50" viewBox="0 0 52 50" fill="none" xmlns="http://www.w3.org/2000/svg" xmlns:xlink="http://www.w3.org/1999/xlink">
<path d="M0.015,2.178C-0.115,1.11 0.629,0.14 1.696,0.011C2.764,-0.118 3.734,0.625 3.863,1.693L5.027,10.716C9.426,4.183 16.864,0.14 24.884,0.14C35.104,0.14 44.191,6.641 47.522,16.278C47.878,17.281 47.328,18.38 46.326,18.736C46.132,18.801 45.905,18.833 45.679,18.833C44.871,18.833 44.127,18.315 43.836,17.539C41.054,9.454 33.422,4.021 24.884,4.021C17.899,4.021 11.398,7.708 7.776,13.594L17.478,12.494C18.546,12.365 19.516,13.141 19.613,14.208C19.71,15.276 18.966,16.246 17.899,16.343L3.928,17.927C3.863,17.927 3.766,17.927 3.701,17.927C2.731,17.927 1.89,17.216 1.793,16.246L0.015,2.178ZM48.072,28.147L34.101,29.732C33.034,29.861 32.258,30.799 32.387,31.866C32.516,32.933 33.454,33.709 34.522,33.58L42.962,32.642C39.664,39.595 32.646,44.091 24.852,44.091C16.088,44.091 8.197,38.237 5.674,29.861C5.351,28.826 4.283,28.244 3.249,28.567C2.214,28.891 1.632,29.958 1.955,30.993C3.41,35.812 6.45,40.145 10.46,43.185C14.632,46.322 19.613,48.004 24.852,48.004C34.425,48.004 42.995,42.312 46.778,33.677L48.137,44.446C48.266,45.417 49.107,46.128 50.045,46.128C50.142,46.128 50.207,46.128 50.304,46.128C51.371,45.999 52.115,45.028 51.985,43.961L50.174,29.893C50.077,28.794 49.139,28.05 48.072,28.147Z" transform="rotate(0 26 24)" fill="#FFFFFF"/>
</svg>
